# xmcd
# Copyright (C) 1995-1998 Ti Kan
#
# Track frame offsets:
#       150
#       15263
#       31013
#       46752
#       62928
#       78503
#       112188
#       126419
#       142730
#       159830
#       176314
#       190985
#       217973
#       230758
#       246197
#       260576
#       285277
#       302774
#       319793
#       335501
#
# Disc length: 4708 seconds
#
# Revision: 0
# Processed by: cddbd v1.5.2PL0 Copyright (c) Steve Scherf et al.
# Submitted via: CD-Import v1.0
#
DISCID=0e126214
DTITLE=Various Artist - Electro Hits Vol 1
DYEAR=2009
DGENRE=
TTITLE0=Make You Feel (Klaas Stomp Edit)
TTITLE1=I Kissed A Girl (Ph Elektro Remix)
TTITLE2=Freeloader (Spencer and Hill Remix)
TTITLE3=Das Boot (Radio Mix)
TTITLE4=The Black Pearl (Dave Darell Remix)
TTITLE5=Finally
TTITLE6=Blade
TTITLE7=No Superstar
TTITLE8=100% Pure Love (Spencer and Hill Remix)
TTITLE9=Korobiki
TTITLE10=Hey Hi Hello
TTITLE11=Everything's Gonna Be Alright
TTITLE12=Is It Love
TTITLE13=Turn The Tide 2k8 (Dave Darell Edit)
TTITLE14=Feel What You Want To Feel
TTITLE15=Fresh
TTITLE16=Joy
TTITLE17=Music Talking
TTITLE18=Partouze
TTITLE19=I Would Die For You
EXTD=
EXTT0=
EXTT1=
EXTT2=
EXTT3=
EXTT4=
EXTT5=
EXTT6=
EXTT7=
EXTT8=
EXTT9=
EXTT10=
EXTT11=
EXTT12=
EXTT13=
EXTT14=
EXTT15=
EXTT16=
EXTT17=
EXTT18=
EXTT19=
PLAYORDER=
